<svg width="768" height="901" viewBox="0 0 768 901" fill="none" xmlns="http://www.w3.org/2000/svg">
<path d="M768 901H0V0H269L306 19H462L499 0H768V901Z" fill="#D9D9D9"/>
<path d="M768 901H0V0H269L306 19H462L499 0H768V901Z" fill="url(#paint0_linear_1438_9981)"/>
<path d="M768 64.5986L690 142.598V901H587L467 784H301L181 901H78V142.598L0 64.5986V0H269L306 19H462L499 0H768V64.5986Z" fill="url(#paint1_linear_1438_9981)"/>
<path d="M269 0L306 19H462L499 0H582V168.348L534.5 201.317V226.795L467 294.233V784H301V294.233L233.5 226.795V201.317L186 168.348V0H269Z" fill="black" fill-opacity="0.2"/>
<path d="M15.5 10L0 10L8.74228e-07 -2.86102e-06L35 1.98774e-07L15.5 10Z" fill="#111111"/>
<path d="M752.5 10L768 10L768 2.86102e-06L733 -1.98774e-07L752.5 10Z" fill="#111111"/>
<path d="M15.4659 872H0V901H306L269 882H34.9231L15.4659 872Z" fill="#111111"/>
<path d="M752.534 872H768V901H462L499 882H733.077L752.534 872Z" fill="#111111"/>
<defs>
<linearGradient id="paint0_linear_1438_9981" x1="384.001" y1="-39.4885" x2="384.001" y2="965.224" gradientUnits="userSpaceOnUse">
<stop stop-color="#171B14"/>
<stop offset="1"/>
</linearGradient>
<linearGradient id="paint1_linear_1438_9981" x1="384" y1="-41.3585" x2="384" y2="605.502" gradientUnits="userSpaceOnUse">
<stop stop-color="#21271D"/>
<stop offset="1"/>
</linearGradient>
</defs>
</svg>
